<svg xmlns="http://www.w3.org/2000/svg" viewBox="0 0 512 512">
  <defs>
    <linearGradient id="g" x1="0" y1="0" x2="1" y2="1">
      <stop offset="0%" stop-color="#FF8E6E"/>
      <stop offset="100%" stop-color="#C5384B"/>
    </linearGradient>
  </defs>
  <rect width="512" height="512" rx="112" fill="url(#g)"/>
  <!-- Bottle silhouette: simple, recognisable at 48 px -->
  <g transform="translate(256 256)" fill="#FFFCF6">
    <!-- Cap -->
    <rect x="-46" y="-148" width="92" height="36" rx="14"/>
    <!-- Neck -->
    <rect x="-32" y="-112" width="64" height="22" rx="6"/>
    <!-- Body -->
    <rect x="-72" y="-90" width="144" height="186" rx="34"/>
    <!-- Measurement marks -->
    <rect x="-50" y="-50" width="20" height="3" rx="1.5" fill="#C5384B" opacity=".5"/>
    <rect x="-50" y="-22" width="28" height="3" rx="1.5" fill="#C5384B" opacity=".5"/>
    <rect x="-50" y="6" width="20" height="3" rx="1.5" fill="#C5384B" opacity=".5"/>
    <rect x="-50" y="34" width="28" height="3" rx="1.5" fill="#C5384B" opacity=".5"/>
  </g>
  <!-- Leaf accent -->
  <g transform="translate(370 138) rotate(20)" fill="#A8B97A">
    <path d="M0 0 Q 24 -22 56 -8 Q 38 22 6 22 Q -8 14 0 0 Z"/>
    <line x1="0" y1="0" x2="44" y2="6" stroke="#5B6E3D" stroke-width="3" stroke-linecap="round"/>
  </g>
</svg>
